<svg width="543" height="410" viewBox="0 0 543 410" fill="none" xmlns="http://www.w3.org/2000/svg">
<path d="M1.34927 378.027L1.3494 378.027L1.35867 378.017L316.546 52.5607C316.548 52.559 316.55 52.5574 316.551 52.5558C318.94 50.2092 317.374 46.1386 314.026 46.0028L314.019 46.0025L314.012 46.0024L64.5178 43.0687C64.5155 43.0686 64.5132 43.0685 64.5109 43.0684C63 43.0035 61.8073 41.759 61.8073 40.2447L61.8073 3.32632C61.8073 1.76544 63.0719 0.500406 64.6315 0.5C64.6317 0.5 64.632 0.5 64.6322 0.5L393.378 1.52346H393.38C394.939 1.52346 396.204 2.78864 396.204 4.34978V400.006C396.204 401.567 394.939 402.833 393.38 402.833H357.405C355.868 402.833 354.613 401.604 354.581 400.067C354.581 400.065 354.58 400.064 354.58 400.063L353.682 85.9351L353.682 85.9265C353.615 82.5594 349.545 80.9149 347.159 83.2917L347.152 83.2985L32.599 408.677C32.598 408.678 32.5969 408.679 32.5958 408.68C31.5014 409.767 29.7375 409.774 28.6333 408.697L1.35226 382.07C0.217082 380.962 0.215744 379.137 1.34927 378.027ZM499.801 75.6958V75.4902L499.794 75.4824V65.6912C499.794 53.6713 489.642 43.9624 477.165 43.9624C464.687 43.9624 454.535 53.6713 454.535 65.6911V130.75C454.535 132.311 453.27 133.576 451.71 133.576H413.329C411.769 133.576 410.504 132.311 410.504 130.75V4.34978C410.504 2.78865 411.769 1.52346 413.329 1.52346H495.878C497.438 1.52346 498.703 2.78863 498.703 4.34977V17.8519C498.703 32.8244 510.835 44.9624 525.802 44.9624H539.675C541.235 44.9624 542.5 46.2276 542.5 47.7887V130.75C542.5 132.311 541.235 133.576 539.675 133.576H502.626C501.066 133.576 499.801 132.311 499.801 130.75V75.6958ZM499.297 75.692L499.294 75.6882V65.6912C499.294 53.9669 489.386 44.4624 477.165 44.4624C464.943 44.4624 455.035 53.9669 455.035 65.6911V130.75C455.035 132.587 453.547 134.076 451.71 134.076H413.329C411.493 134.076 410.004 132.587 410.004 130.75V4.34978C410.004 2.5127 411.493 1.02346 413.329 1.02346H495.878C497.714 1.02346 499.203 2.5127 499.203 4.34977V17.8519C499.203 32.5485 511.111 44.4624 525.802 44.4624H539.675C541.511 44.4624 543 45.9517 543 47.7887V130.75C543 132.587 541.511 134.076 539.675 134.076H502.626C500.79 134.076 499.301 132.587 499.301 130.75L499.297 75.692Z" stroke="#433E37"/>
</svg>
