<svg width="66" height="84" viewBox="0 0 66 84" fill="none" xmlns="http://www.w3.org/2000/svg">
<path d="M1.84528 0C0.826158 0 0 0.787602 0 1.75916V61.9677C0 64.166 1.78757 65.9452 3.98584 65.9348L12.3786 65.8952C14.5769 65.8848 16.3644 67.664 16.3644 69.8623V80.0329C16.3644 82.2238 18.1406 84 20.3316 84L64.1233 84C65.1424 84 65.9686 83.2124 65.9686 82.2408V56.0824C65.9686 54.8854 64.7417 54.0379 63.5485 54.4108H34.4142C32.2232 54.4108 30.447 52.6347 30.447 50.4437V1.75916C30.447 0.787604 29.6209 0 28.6018 0H1.84528Z" fill="#978163"/>
</svg>
