<svg width="83" height="39" viewBox="0 0 83 39" fill="none" xmlns="http://www.w3.org/2000/svg">
<path fill-rule="evenodd" clip-rule="evenodd" d="M15.842 15.0017C16.4509 14.4039 16.0529 13.3653 15.2016 13.3306L1.43249 12.7706C0.91149 12.7494 0.500002 12.3195 0.500002 11.7964L0.5 0.975008C0.5 0.43653 0.935114 7.50859e-06 1.47185 7.40374e-06L38.4022 1.89841e-07C38.939 8.49955e-08 39.3741 0.436524 39.3741 0.975001L39.3741 38.025C39.3741 38.5635 38.939 39 38.4022 39H27.887C27.3578 39 26.9259 38.5753 26.9153 38.0445L26.6527 24.8895C26.6356 24.0314 25.6015 23.6125 24.9953 24.2181L15.7565 33.447C15.3801 33.823 14.7724 33.8261 14.3922 33.4539L6.41804 25.6492C6.02754 25.267 6.02706 24.6373 6.41699 24.2545L15.842 15.0017Z" fill="#AFAFAF"/>
<path d="M69.726 21.8866L69.7249 21.8855V18.9552C69.7249 15.5186 66.8289 12.7327 63.2566 12.7327C59.6843 12.7327 56.7884 15.5186 56.7884 18.9552V38.025C56.7884 38.5635 56.3533 39 55.8165 39H44.5978C44.061 39 43.6259 38.5635 43.6259 38.025V0.975001C43.6259 0.436524 44.061 0 44.5978 0H68.7264C69.2631 0 69.6982 0.436522 69.6982 0.975V4.9327C69.6982 9.24052 73.1791 12.7327 77.473 12.7327H81.5281C82.0649 12.7327 82.5 13.1692 82.5 13.7077V38.025C82.5 38.5635 82.0649 39 81.5281 39H70.6989C70.1622 39 69.7271 38.5635 69.7271 38.025V21.8877L69.726 21.8866Z" fill="#D1D1D1"/>
</svg>
