<svg width="64" height="84" viewBox="0 0 64 84" fill="none" xmlns="http://www.w3.org/2000/svg">
<path d="M0 82C0 83.1046 0.895428 84 2 84H19.369C20.4909 84 21.3933 83.0773 21.3685 81.9557L20.8383 58.0407C20.7925 55.9714 23.535 55.2039 24.5699 56.9963L39.6525 83.1202C39.9667 83.6643 40.5473 83.9996 41.1757 83.9996L61.2657 83.9997C62.6269 83.9997 63.4721 82.5199 62.7807 81.3475L43.5978 48.8169C42.9911 47.7881 43.4202 46.4655 44.4619 45.8814C51.944 41.6864 57 33.6833 57 24.5C57 10.969 46.0233 0 32.4828 0H2C0.895431 0 0 0.895431 0 2V14.1875C0 15.2921 0.895431 16.1875 2 16.1875H28.6592C33.3536 16.1875 37.1592 19.9931 37.1592 24.6875C37.1592 29.3819 33.3536 33.1875 28.6592 33.1875H2C0.89543 33.1875 0 34.0829 0 35.1875V82Z" fill="#54736C"/>
</svg>
